<?xml version="1.0" encoding="UTF-8" standalone="no"?>
<svg width="220px" height="220px" viewBox="0 0 220 220" version="1.1" xmlns="http://www.w3.org/2000/svg" xmlns:xlink="http://www.w3.org/1999/xlink" xmlns:sketch="http://www.bohemiancoding.com/sketch/ns">
    <title>brightness</title>
    <description>Created with Sketch (http://www.bohemiancoding.com/sketch)</description>
    <defs></defs>
    <g id="Page-1" stroke="none" stroke-width="1" fill="none" fill-rule="evenodd" sketch:type="MSPage">
        <g id="Artboard-1" sketch:type="MSArtboardGroup" transform="translate(-690.000000, -5303.000000)" fill="#FFFFFF">
            <g id="Rectangle-1-+-Switch-+-You-turn-me-on,-baby-+-Path" sketch:type="MSLayerGroup" transform="translate(0.000000, 5000.000000)">
                <g id="Switch-+-You-turn-me-on,-baby" transform="translate(470.000000, 303.000000)" sketch:type="MSShapeGroup">
                    <path d="M305.884486,69.5554667 C299.026324,73.6093333 293.290568,79.3205333 289.21927,86.1464 C286.956784,89.9333333 285.227514,94.0517333 284.099216,98.4253333 C283.127054,102.185867 282.558486,106.1048 282.558486,110.164533 C282.558486,114.221333 283.127054,118.1344 284.099216,121.892 C285.227514,126.262667 286.95973,130.386933 289.216324,134.1768 C293.287622,141.0056 299.023378,146.7168 305.881541,150.770667 C309.684757,153.020533 313.823811,154.7424 318.216216,155.865867 C321.992919,156.833867 325.925757,157.4 330,157.4 C334.074243,157.4 338.007081,156.833867 341.783784,155.865867 C346.173243,154.7424 350.315243,153.0176 354.118459,150.770667 C360.976622,146.7168 366.712378,141.0056 370.783676,134.1768 C373.043216,130.389867 374.772486,126.2656 375.900784,121.892 C376.872946,118.1344 377.441514,114.221333 377.441514,110.164533 C377.441514,106.1048 376.872946,102.185867 375.900784,98.4253333 C374.772486,94.0546667 373.04027,89.9333333 370.78073,86.1464 C366.709432,79.3205333 360.973676,73.6093333 354.115514,69.5554667 C350.312297,67.3085333 346.173243,65.5837333 341.783784,64.4632 C338.007081,63.4952 334.074243,62.9290667 330,62.9290667 C325.925757,62.9290667 321.992919,63.4952 318.216216,64.4632 C313.829703,65.5866667 309.687703,67.3114667 305.884486,69.5554667 L305.884486,69.5554667 Z M341.783784,89.5168 C345.510405,91.6346667 348.606595,94.7146667 350.733568,98.4253333 C351.70573,100.117867 352.465784,101.939467 352.996054,103.857867 C353.552838,105.873067 353.876892,107.9792 353.876892,110.164533 C353.876892,112.349867 353.555784,114.456 352.996054,116.465333 C352.465784,118.3808 351.708676,120.199467 350.739459,121.892 C348.612486,125.608533 345.516297,128.691467 341.783784,130.812267 C340.083973,131.777333 338.257486,132.5312 336.330838,133.0592 C334.309919,133.6136 332.19473,133.936267 330,133.936267 C327.80527,133.936267 325.687135,133.616533 323.669162,133.0592 C321.745459,132.5312 319.918973,131.777333 318.216216,130.812267 C314.483703,128.691467 311.387514,125.608533 309.260541,121.892 C308.291324,120.2024 307.534216,118.383733 307.003946,116.465333 C306.447162,114.453067 306.123108,112.349867 306.123108,110.164533 C306.123108,107.9792 306.444216,105.870133 307.003946,103.857867 C307.534216,101.9424 308.29427,100.1208 309.266432,98.4253333 C311.393405,94.7146667 314.489595,91.6346667 318.216216,89.5168 C319.916027,88.5517333 321.745459,87.7978667 323.675054,87.2669333 C325.695973,86.7154667 327.80527,86.3928 330,86.3928 C332.19473,86.3928 334.306973,86.7125333 336.324946,87.2669333 C338.254541,87.7978667 340.083973,88.5517333 341.783784,89.5168 Z M330,0 C323.372583,0 318,5.37267554 318,12.0074017 L318,29.9925983 C318,36.6241031 323.371126,42 330,42 C336.627417,42 342,36.6273245 342,29.9925983 L342,12.0074017 C342,5.37589686 336.628874,0 330,0 Z M407.781746,32.2182541 C403.095454,27.5319626 395.497409,27.532028 390.805949,32.2234879 L378.088495,44.9409423 C373.399313,49.6301244 373.395939,57.229417 378.083261,61.9167389 C382.769553,66.6030304 390.367598,66.6029649 395.059058,61.9115051 L407.776512,49.1940506 C412.465694,44.5048686 412.469068,36.905576 407.781746,32.2182541 Z M440,110 C440,103.372583 434.627324,98 427.992598,98 L410.007402,98 C403.375897,98 398,103.371126 398,110 C398,116.627417 403.372676,122 410.007402,122 L427.992598,122 C434.624103,122 440,116.628874 440,110 Z M407.781746,187.781746 C412.468037,183.095454 412.467972,175.497409 407.776512,170.805949 L395.059058,158.088495 C390.369876,153.399313 382.770583,153.395939 378.083261,158.083261 C373.39697,162.769553 373.397035,170.367598 378.088495,175.059058 L390.805949,187.776512 C395.495131,192.465694 403.094424,192.469068 407.781746,187.781746 Z M330,220 C336.627417,220 342,214.627324 342,207.992598 L342,190.007402 C342,183.375897 336.628874,178 330,178 C323.372583,178 318,183.372676 318,190.007402 L318,207.992598 C318,214.624103 323.371126,220 330,220 Z M252.218254,187.781746 C256.904546,192.468037 264.502591,192.467972 269.194051,187.776512 L281.911505,175.059058 C286.600687,170.369876 286.604061,162.770583 281.916739,158.083261 C277.230447,153.39697 269.632402,153.397035 264.940942,158.088495 L252.223488,170.805949 C247.534306,175.495131 247.530932,183.094424 252.218254,187.781746 Z M220,110 C220,116.627417 225.372676,122 232.007402,122 L249.992598,122 C256.624103,122 262,116.628874 262,110 C262,103.372583 256.627324,98 249.992598,98 L232.007402,98 C225.375897,98 220,103.371126 220,110 Z M252.218254,32.2182541 C247.531963,36.9045456 247.532028,44.5025907 252.223488,49.1940506 L264.940942,61.9115051 C269.630124,66.6006871 277.229417,66.6040608 281.916739,61.9167389 C286.60303,57.2304474 286.602965,49.6324022 281.911505,44.9409423 L269.194051,32.2234879 C264.504869,27.5343058 256.905576,27.5309322 252.218254,32.2182541 Z" id="Brightness"></path>
                </g>
            </g>
        </g>
    </g>
</svg>