<?xml version="1.0" encoding="UTF-8" standalone="no"?>
<svg width="220px" height="220px" viewBox="0 0 220 220" version="1.1" xmlns="http://www.w3.org/2000/svg" xmlns:xlink="http://www.w3.org/1999/xlink" xmlns:sketch="http://www.bohemiancoding.com/sketch/ns">
    <title>calendar</title>
    <description>Created with Sketch (http://www.bohemiancoding.com/sketch)</description>
    <defs></defs>
    <g id="Page-1" stroke="none" stroke-width="1" fill="none" fill-rule="evenodd" sketch:type="MSPage">
        <g id="-" sketch:type="MSArtboardGroup" transform="translate(-690.000000, -7303.000000)" fill="#FFFFFF">
            <g id="Rectangle-1-+-Switch-+-You-turn-me-on,-baby-+-Path" sketch:type="MSLayerGroup" transform="translate(0.000000, 7000.000000)">
                <g id="Switch-+-You-turn-me-on,-baby" transform="translate(470.000000, 268.000000)" sketch:type="MSShapeGroup">
                    <path d="M259.999797,35 C237.908519,35 220,52.9102443 220,74.9997973 L220,215.000203 C220,237.091481 237.910244,255 259.999797,255 L400.000203,255 C422.091481,255 440,237.089756 440,215.000203 L440,74.9997973 C440,52.9085193 422.089756,35 400.000203,35 L259.999797,35 Z M220,97 L220,107 L440,107 L440,97 L220,97 Z M307.04,216 L307.04,132 L293.48,132 C292.999998,135.200016 292.000008,137.879989 290.48,140.04 C288.959992,142.200011 287.100011,143.939993 284.9,145.26 C282.699989,146.580007 280.220014,147.499997 277.46,148.02 C274.699986,148.540003 271.840015,148.76 268.88,148.68 L268.88,161.52 L290,161.52 L290,216 L307.04,216 Z M364.16,196.56 L364.16,216 L380.36,216 L380.36,196.56 L391.52,196.56 L391.52,182.52 L380.36,182.52 L380.36,132 L365.12,132 L328.64,180.96 L328.64,196.56 L364.16,196.56 Z M364.16,153.36 L364.16,182.52 L342.08,182.52 L363.8,153.36 L364.16,153.36 Z M293.76,52.44 L293.76,81 L300.04,81 L300.04,69.2 L312,69.2 L312,64.32 L300.04,64.32 L300.04,57.72 L313.84,57.72 L313.84,52.44 L293.76,52.44 Z M317.48,52.44 L317.48,81 L339.16,81 L339.16,75.72 L323.76,75.72 L323.76,68.72 L337.6,68.72 L337.6,63.84 L323.76,63.84 L323.76,57.72 L338.84,57.72 L338.84,52.44 L317.48,52.44 Z M343.4,52.44 L343.4,81 L357.24,81 C358.520006,81 359.766661,80.8400016 360.98,80.52 C362.193339,80.1999984 363.273329,79.70667 364.22,79.04 C365.166671,78.37333 365.919997,77.5133386 366.48,76.46 C367.040003,75.4066614 367.32,74.1600072 367.32,72.72 C367.32,70.9333244 366.886671,69.406673 366.02,68.14 C365.153329,66.873327 363.840009,65.9866692 362.08,65.48 C363.360006,64.8666636 364.326663,64.0800048 364.98,63.12 C365.633337,62.1599952 365.96,60.9600072 365.96,59.52 C365.96,58.18666 365.740002,57.0666712 365.3,56.16 C364.859998,55.2533288 364.240004,54.5266694 363.44,53.98 C362.639996,53.4333306 361.680006,53.0400012 360.56,52.8 C359.439994,52.5599988 358.200007,52.44 356.84,52.44 L343.4,52.44 Z M349.68,64 L349.68,57.32 L355.56,57.32 C356.120003,57.32 356.659997,57.3666662 357.18,57.46 C357.700003,57.5533338 358.159998,57.7199988 358.56,57.96 C358.960002,58.2000012 359.279999,58.5333312 359.52,58.96 C359.760001,59.3866688 359.88,59.93333 359.88,60.6 C359.88,61.800006 359.520004,62.666664 358.8,63.2 C358.079996,63.733336 357.160006,64 356.04,64 L349.68,64 Z M349.68,76.12 L349.68,68.28 L356.52,68.28 C357.880007,68.28 358.973329,68.5933302 359.8,69.22 C360.626671,69.8466698 361.04,70.893326 361.04,72.36 C361.04,73.1066704 360.913335,73.7199976 360.66,74.2 C360.406665,74.6800024 360.066669,75.0599986 359.64,75.34 C359.213331,75.6200014 358.720003,75.8199994 358.16,75.94 C357.599997,76.0600006 357.013336,76.12 356.4,76.12 L349.68,76.12 Z" id="calendar"></path>
                </g>
            </g>
        </g>
    </g>
</svg>