<?xml version="1.0" encoding="UTF-8" standalone="no"?>
<svg width="32px" height="32px" viewBox="0 0 32 32" version="1.1" xmlns="http://www.w3.org/2000/svg" xmlns:xlink="http://www.w3.org/1999/xlink" xmlns:sketch="http://www.bohemiancoding.com/sketch/ns">
    <title>info</title>
    <description>Created with Sketch (http://www.bohemiancoding.com/sketch)</description>
    <defs></defs>
    <g id="Page-1" stroke="none" stroke-width="1" fill="none" fill-rule="evenodd" sketch:type="MSPage">
        <g id="Artboard-1" sketch:type="MSArtboardGroup" transform="translate(-20.000000, -20.000000)" fill="#FFFFFF">
            <path d="M52,36 C52,27.1634436 44.8365564,20 36,20 C27.1634436,20 20,27.1634436 20,36 C20,44.8365564 27.1634436,52 36,52 C44.8365564,52 52,44.8365564 52,36 Z M38.7578125,43.4203125 C38.0359339,43.7046889 37.459898,43.9216138 37.0296875,44.0710938 C36.599477,44.2205737 36.1000028,44.2953125 35.53125,44.2953125 C34.6562456,44.2953125 33.9763045,44.0820334 33.4914063,43.6554687 C33.006508,43.2289041 32.7640625,42.6875033 32.7640625,42.03125 C32.7640625,41.7760404 32.7822915,41.5153659 32.81875,41.2492187 C32.8552085,40.9830716 32.9135413,40.6822933 32.99375,40.346875 L33.890625,37.153125 C33.9708337,36.8468735 34.038281,36.5570326 34.0929688,36.2835938 C34.1476565,36.0101549 34.175,35.7604178 34.175,35.534375 C34.175,35.1260396 34.0911467,34.8416675 33.9234375,34.68125 C33.7557283,34.5208325 33.4348982,34.440625 32.9609375,34.440625 C32.727603,34.440625 32.4888033,34.477083 32.2445313,34.55 C32.0002592,34.622917 31.7906259,34.6921872 31.615625,34.7578125 L31.85625,33.7734375 C32.446878,33.5328113 33.0119765,33.3268238 33.5515625,33.1554687 C34.0911485,32.9841137 34.6015601,32.8984375 35.0828125,32.8984375 C35.9505252,32.8984375 36.6195289,33.1080708 37.0898438,33.5273438 C37.5601586,33.9466167 37.7953125,34.4916633 37.7953125,35.1625 C37.7953125,35.3010424 37.7789064,35.5453107 37.7460938,35.8953125 C37.7132811,36.2453142 37.6531254,36.5661444 37.565625,36.8578125 L36.66875,40.040625 C36.595833,40.2958346 36.5302086,40.5874984 36.471875,40.915625 C36.4135414,41.2437516 36.384375,41.4916658 36.384375,41.659375 C36.384375,42.0822938 36.4791657,42.3703117 36.66875,42.5234375 C36.8583343,42.6765633 37.186456,42.753125 37.653125,42.753125 C37.8718761,42.753125 38.1197903,42.7148441 38.396875,42.6382812 C38.6739597,42.5617184 38.8744785,42.4942711 38.9984375,42.4359375 L38.7578125,43.4203125 Z M38.5992187,30.4976562 C38.1799458,30.8877624 37.675003,31.0828125 37.084375,31.0828125 C36.493747,31.0828125 35.9869813,30.8877624 35.5640625,30.4976562 C35.1411437,30.1075501 34.9296875,29.6354194 34.9296875,29.08125 C34.9296875,28.5270806 35.1411437,28.053127 35.5640625,27.659375 C35.9869813,27.265623 36.493747,27.06875 37.084375,27.06875 C37.675003,27.06875 38.1799458,27.265623 38.5992187,27.659375 C39.0184917,28.053127 39.228125,28.5270806 39.228125,29.08125 C39.228125,29.6354194 39.0184917,30.1075501 38.5992187,30.4976562 Z" id="Help" sketch:type="MSShapeGroup"></path>
        </g>
    </g>
</svg>