<?xml version="1.0" encoding="utf-8"?>
<!-- Generator: Adobe Illustrator 17.1.0, SVG Export Plug-In . SVG Version: 6.00 Build 0)  -->
<!DOCTYPE svg PUBLIC "-//W3C//DTD SVG 1.1//EN" "http://www.w3.org/Graphics/SVG/1.1/DTD/svg11.dtd">
<svg version="1.1" id="Layer_1" xmlns:sketch="http://www.bohemiancoding.com/sketch/ns"
	 xmlns="http://www.w3.org/2000/svg" xmlns:xlink="http://www.w3.org/1999/xlink" x="0px" y="0px" viewBox="0 0 220 220"
	 enable-background="new 0 0 220 220" xml:space="preserve">
<title>picker</title>
<description>Created with Sketch (http://www.bohemiancoding.com/sketch)</description>
<g>
	<defs>
		<circle id="SVGID_1_" cx="110" cy="110" r="110"/>
	</defs>
	<clipPath id="SVGID_2_">
		<use xlink:href="#SVGID_1_"  overflow="visible"/>
	</clipPath>
	
		<rect x="-5" y="-5" clip-path="url(#SVGID_2_)" fill-rule="evenodd" clip-rule="evenodd" fill="#FFFFFF" width="230" height="230"/>
</g>
<g>
	<defs>
		<path id="SVGID_3_" d="M110,154c24.3,0,44-19.7,44-44c0-24.3-19.7-44-44-44s-44,19.7-44,44C66,134.3,85.7,154,110,154z M110,198
			c48.6,0,88-39.4,88-88s-39.4-88-88-88s-88,39.4-88,88S61.4,198,110,198z"/>
	</defs>
	<clipPath id="SVGID_4_">
		<use xlink:href="#SVGID_3_"  overflow="visible"/>
	</clipPath>
	<g clip-path="url(#SVGID_4_)">
		<defs>
			<rect id="SVGID_5_" x="22" y="22" width="176" height="176"/>
		</defs>
		<clipPath id="SVGID_6_">
			<use xlink:href="#SVGID_5_"  overflow="visible"/>
		</clipPath>
		<g clip-path="url(#SVGID_6_)">
			<defs>
				<rect id="SVGID_7_" x="20" y="20" width="1004" height="1004"/>
			</defs>
			<clipPath id="SVGID_8_">
				<use xlink:href="#SVGID_7_"  overflow="visible"/>
			</clipPath>
			<g opacity="0" clip-path="url(#SVGID_8_)">
				
					<image overflow="visible" width="1004" height="1004" xlink:href="BCF761CB292FC662.png"  transform="matrix(1 0 0 -1 20 1024)">
				</image>
			</g>
		</g>
	</g>
</g>
<g>
	<defs>
		<path id="SVGID_9_" d="M110,154c24.3,0,44-19.7,44-44c0-24.3-19.7-44-44-44s-44,19.7-44,44C66,134.3,85.7,154,110,154z M110,198
			c48.6,0,88-39.4,88-88s-39.4-88-88-88s-88,39.4-88,88S61.4,198,110,198z"/>
	</defs>
	<clipPath id="SVGID_10_">
		<use xlink:href="#SVGID_9_"  overflow="visible"/>
	</clipPath>
	<g clip-path="url(#SVGID_10_)">
		<defs>
			<rect id="SVGID_11_" x="20" y="20" width="180" height="180"/>
		</defs>
		<clipPath id="SVGID_12_">
			<use xlink:href="#SVGID_11_"  overflow="visible"/>
		</clipPath>
		<g transform="matrix(1 0 0 1 0 0)" clip-path="url(#SVGID_12_)">
			
				<image overflow="visible" width="1004" height="1004" xlink:href="BCF761CB292FC665.png"  transform="matrix(0.1793 0 0 -0.1793 20 200)">
			</image>
		</g>
	</g>
</g>
<circle fill-rule="evenodd" clip-rule="evenodd" fill="#FFFFFF" cx="110" cy="110" r="44"/>
</svg>
