<svg xmlns="http://www.w3.org/2000/svg" xmlns:xlink="http://www.w3.org/1999/xlink" xmlns:sketch="http://www.bohemiancoding.com/sketch/ns" width="42px" height="32px" viewBox="0 0 42 32" version="1.1"><defs/><g stroke="none" stroke-width="1" fill="none" fill-rule="evenodd" sketch:type="MSPage"><g sketch:type="MSArtboardGroup" transform="translate(-20.000000, -2020.000000)" fill="#FFF"><g sketch:type="MSLayerGroup"><path d="M47 2039.8 C44.3 2042.4 48.4 2046.2 51.1 2043.6 L61.2 2034.1 C62.3 2033.1 62.3 2031.4 61.2 2030.3 L51.1 2020.8 C48.4 2018.3 44.3 2022.1 47 2024.6 L50.4 2027.8 C41.7 2025.8 32.3 2029.3 29.6 2039.1 C29.6 2039.3 28.9 2041.3 30 2041.7 C31.1 2042.1 31.8 2041.1 32.3 2040.4 C34.5 2037.1 43.1 2034 50.2 2036.8 L47 2039.8 ZM42.8 2021.9 L25.7 2021.9 C22.6 2021.9 20 2024.4 20 2027.5 L20 2046.3 C20 2049.5 22.6 2052 25.7 2052 L52.5 2052 C55.6 2052 58.2 2049.5 58.2 2046.3 L58.2 2041.6 L53.4 2046.1 C53 2046.4 52.8 2046.8 51.6 2046.9 C51.5 2046.9 51.4 2046.9 51.2 2046.9 C51.2 2046.9 27.1 2046.9 27.1 2046.9 C26 2046.9 25.2 2046.1 25.2 2045 L25.2 2028.8 C25.2 2027.8 26 2027 27.1 2027 L34.5 2027 C36.9 2025.4 39.8 2024.4 42.9 2024 C42.7 2023.3 42.7 2022.6 42.8 2021.9 Z" sketch:type="MSShapeGroup"/></g></g></g></svg>