<?xml version="1.0" encoding="UTF-8" standalone="no"?>
<svg width="40px" height="32px" viewBox="0 0 40 32" version="1.1" xmlns="http://www.w3.org/2000/svg" xmlns:xlink="http://www.w3.org/1999/xlink" xmlns:sketch="http://www.bohemiancoding.com/sketch/ns">
    <title>twitter</title>
    <description>Created with Sketch (http://www.bohemiancoding.com/sketch)</description>
    <defs></defs>
    <g id="Page-1" stroke="none" stroke-width="1" fill="none" fill-rule="evenodd" sketch:type="MSPage">
        <g id="-" sketch:type="MSArtboardGroup" transform="translate(-674.000000, -720.000000)" fill="#55ACEE">
            <g id="Rectangle-1-+-Rectangle-4-+-http://something.com-+-Rectangle-277" sketch:type="MSLayerGroup">
                <g id="Rectangle-50-+-Fill-1-+-tweet-'bout-it" transform="translate(654.000000, 704.000000)" sketch:type="MSShapeGroup">
                    <path d="M55.2868,21.0455951 C56.9808,20.0486871 58.2822,18.4700859 58.895,16.5889571 C57.3092,17.5122454 55.553,18.1824785 53.6836,18.5437055 C52.1868,16.9780613 50.054,16 47.6936,16 C43.1616,16 39.487,19.6065767 39.487,24.0551656 C39.487,24.6865276 39.5596,25.3013988 39.6996,25.8909448 C32.8792,25.5550429 26.8322,22.3479755 22.7848,17.4743558 C22.0784,18.6640491 21.6736,20.0479018 21.6736,21.5242209 C21.6736,24.3190184 23.1224,26.784589 25.3244,28.2291043 C23.9792,28.1872883 22.7138,27.8248834 21.6074,27.2215951 C21.6066,27.2551656 21.6066,27.2887362 21.6066,27.3228957 C21.6066,31.2257178 24.4354,34.4814724 28.1896,35.2215951 C27.501,35.4057423 26.776,35.5042945 26.0276,35.5042945 C25.4988,35.5042945 24.9846,35.4536442 24.4836,35.3596074 C25.5278,38.5598037 28.5584,40.8889325 32.1496,40.9537178 C29.341,43.1144049 25.8026,44.4022577 21.9576,44.4022577 C21.2952,44.4022577 20.642,44.3639755 20,44.2895706 C23.6318,46.5751166 27.9454,47.908908 32.5798,47.908908 C47.6744,47.908908 55.929,35.6342577 55.929,24.9892515 C55.929,24.64 55.9208,24.2927117 55.905,23.9471902 C57.5086,22.8112883 58.8998,21.3926871 60,19.7771779 C58.5284,20.4179632 56.9466,20.8510429 55.2868,21.0455951 Z" id="Twitter"></path>
                </g>
            </g>
        </g>
    </g>
</svg>