<?xml version="1.0" encoding="UTF-8" standalone="no"?>
<svg width="303px" height="220px" viewBox="0 0 303 220" version="1.1" xmlns="http://www.w3.org/2000/svg" xmlns:xlink="http://www.w3.org/1999/xlink" xmlns:sketch="http://www.bohemiancoding.com/sketch/ns">
    <title>wifi</title>
    <description>Created with Sketch (http://www.bohemiancoding.com/sketch)</description>
    <defs></defs>
    <g id="Page-1" stroke="none" stroke-width="1" fill="none" fill-rule="evenodd" sketch:type="MSPage">
        <g id="Artboard-1" sketch:type="MSArtboardGroup" transform="translate(-649.000000, -6302.000000)" fill="#FFFFFF">
            <g id="Rectangle-1-+-Switch-+-You-turn-me-on,-baby-+-Path" sketch:type="MSLayerGroup" transform="translate(0.000000, 6000.000000)">
                <g id="Switch-+-You-turn-me-on,-baby" transform="translate(470.000000, 302.000000)" sketch:type="MSShapeGroup">
                    <path d="M474.260854,89.3693199 C483.860645,80.7295807 484.635717,65.9470793 475.992026,56.3516768 C475.473039,55.7755461 474.931896,55.2312147 474.371051,54.7188112 C474.158421,54.3728085 473.891826,54.0630431 473.567728,53.7932525 C392.446471,-13.7349075 274.851687,-18.3127494 188.602562,43.6112282 C188.340448,43.7994177 188.129236,44.0325391 187.965769,44.3067206 C187.548426,44.6341673 187.139278,44.9779271 186.739146,45.3380429 C177.139355,53.9777821 176.364283,68.7602835 185.007974,78.355686 C193.651664,87.9510885 208.440927,88.7258065 218.040718,80.0860673 C218.263638,79.8854411 218.481799,79.6815025 218.695194,79.4743935 C286.477221,32.7426364 377.260102,36.2983004 441.128892,87.5281042 C449.8718,97.234341 464.661063,98.0090591 474.260854,89.3693199 Z M266.57766,140.486873 C266.374579,140.613941 266.141675,140.681606 265.881954,140.69395 C256.764896,146.202853 244.73261,144.656291 237.340284,136.450035 C228.966709,127.154489 229.717561,112.833941 239.017358,104.464193 C240.808488,102.85219 242.786102,101.578497 244.871749,100.639003 C297.865942,68.7592158 365.213252,71.7454198 415.145286,107.933148 C416.819277,109.004545 418.378871,110.315583 419.773353,111.863605 C428.146928,121.159151 427.396077,135.479699 418.096279,143.849446 C410.265869,150.896756 398.871301,151.478165 390.467505,145.937046 C390.295588,145.880065 390.137794,145.798654 389.995124,145.691681 C354.054253,118.743266 304.780564,116.583197 266.57766,140.486873 Z M303.071806,209.418912 C291.24906,196.294425 292.308535,176.073331 305.440604,164.254568 C318.571489,152.436871 338.802148,153.497007 350.624894,166.621493 C362.446572,179.744796 361.388481,199.96822 348.257597,211.785917 C335.125527,223.60468 314.89384,222.542609 303.071806,209.418912 Z" id="wifi"></path>
                </g>
            </g>
        </g>
    </g>
</svg>