<?xml version="1.0" encoding="UTF-8" standalone="no"?>
<svg width="32px" height="32px" viewBox="0 0 32 32" version="1.1" xmlns="http://www.w3.org/2000/svg" xmlns:xlink="http://www.w3.org/1999/xlink" xmlns:sketch="http://www.bohemiancoding.com/sketch/ns">
    <title>x</title>
    <description>Created with Sketch (http://www.bohemiancoding.com/sketch)</description>
    <defs></defs>
    <g id="Page-1" stroke="none" stroke-width="1" fill="none" fill-rule="evenodd" sketch:type="MSPage">
        <g id="Artboard-1" sketch:type="MSArtboardGroup" transform="translate(-20.000000, -1020.000000)">
            <g id="Rectangle-1-+-Switch-+-You-turn-me-on,-baby-+-Path" sketch:type="MSLayerGroup" transform="translate(0.000000, 1000.000000)">
                <rect id="Rectangle-1" fill="#FFFFFF" sketch:type="MSShapeGroup" x="0" y="0" width="1600" height="1000"></rect>
                <path d="M47.0374781,39.8351981 C44.3466966,42.3684994 48.3828689,46.1684513 51.0736505,43.63515 L61.1640813,34.1352701 C62.2786396,33.0859423 62.2786396,31.3846459 61.1640813,30.3353181 L51.0736505,20.8354382 C48.3828689,18.3021369 44.3466966,22.1020889 47.0374781,24.6353902 L50.419033,27.8190367 C41.6843202,25.7518582 32.3229589,29.291567 29.6146797,39.1458017 C29.5839269,39.2576975 28.9096098,41.2723186 30.0172707,41.7041525 C31.1249316,42.1359865 31.8332754,41.0716867 32.2589552,40.4415443 C34.5439213,37.0590631 43.0538922,34.0280283 50.2497104,36.8109644 L47.0374781,39.8351981 Z M42.7769967,21.8823529 L25.716204,21.8823529 C22.5592317,21.8823529 20,24.3983643 20,27.547252 L20,46.335101 C20,49.4637383 22.5645047,52 25.716204,52 L52.4656142,52 C55.6225865,52 58.1818182,49.4839886 58.1818182,46.335101 L58.1818182,41.6277526 L53.4467688,46.0856793 C52.9868015,46.3768156 52.7818276,46.8439218 51.589372,46.9176241 C51.5496853,46.920077 51.4139679,46.9191622 51.2108521,46.9151099 C51.1779345,46.9167903 27.0703451,46.9176413 27.0703451,46.9176413 C26.0192792,46.9176413 25.1545396,46.0772242 25.1545396,45.040517 L25.1545396,28.8418244 C25.1545396,27.8220531 26.0122749,26.9647001 27.0703451,26.9647001 L34.4565493,26.9647001 C36.9380694,25.3851144 39.7955894,24.3841198 42.8511796,24.0132038 C42.6884812,23.3067864 42.6665597,22.5859315 42.7769967,21.8823529 Z" id="Path" fill="#0F98EC" sketch:type="MSShapeGroup"></path>
            </g>
            <g id="Rectangle-1-+-Rectangle-4-+-http://something.com-+-Rectangle-277" sketch:type="MSLayerGroup" transform="translate(0.000000, 1000.000000)">
                <rect id="Rectangle-1" fill-opacity="0.9" fill="#2F3440" sketch:type="MSShapeGroup" x="0" y="0" width="1600" height="1000"></rect>
                <path d="M21.1737107,26.7931326 C19.6116632,25.231085 19.6137225,22.7172436 21.165483,21.165483 C22.7280621,19.602904 25.2368281,19.6174062 26.7931326,21.1737107 L36,30.3805781 L45.2068674,21.1737107 C46.768915,19.6116632 49.2827564,19.6137225 50.834517,21.165483 C52.397096,22.7280621 52.3825938,25.2368281 50.8262893,26.7931326 L41.6194219,36 L50.8262893,45.2068674 C52.3883368,46.768915 52.3862775,49.2827564 50.834517,50.834517 C49.2719379,52.397096 46.7631719,52.3825938 45.2068674,50.8262893 L36,41.6194219 L26.7931326,50.8262893 C25.231085,52.3883368 22.7172436,52.3862775 21.165483,50.834517 C19.602904,49.2719379 19.6174062,46.7631719 21.1737107,45.2068674 L30.3805781,36 L21.1737107,26.7931326 Z" id="X" fill="#FFFFFF" sketch:type="MSShapeGroup"></path>
            </g>
        </g>
    </g>
</svg>